<svg width="110" height="30" viewBox="0 0 344 96" fill="none" xmlns="http://www.w3.org/2000/svg">
<path d="M35.8887 76H21.9238V19.9941H0.878906V5.98047H56.8848V19.9941H35.8887V76ZM71.6309 76H58.3008V23.7051H61.5234L65.918 29.9062C68.0664 27.9531 70.5078 26.4557 73.2422 25.4141C75.9766 24.3398 78.8086 23.8027 81.7383 23.8027H93.5059V37.084H81.7383C80.3385 37.084 79.0202 37.3444 77.7832 37.8652C76.5462 38.3861 75.472 39.1022 74.5605 40.0137C73.6491 40.9251 72.9329 41.9993 72.4121 43.2363C71.8913 44.4733 71.6309 45.7917 71.6309 47.1914V76ZM115.43 9.49609C115.43 10.7331 115.186 11.8887 114.697 12.9629C114.242 14.0371 113.607 14.9811 112.793 15.7949C111.979 16.5762 111.019 17.2109 109.912 17.6992C108.838 18.1549 107.682 18.3828 106.445 18.3828C105.208 18.3828 104.036 18.1549 102.93 17.6992C101.855 17.2109 100.911 16.5762 100.098 15.7949C99.3164 14.9811 98.6816 14.0371 98.1934 12.9629C97.7376 11.8887 97.5098 10.7331 97.5098 9.49609C97.5098 8.29167 97.7376 7.15234 98.1934 6.07812C98.6816 4.97135 99.3164 4.02734 100.098 3.24609C100.911 2.43229 101.855 1.79753 102.93 1.3418C104.036 0.853516 105.208 0.609375 106.445 0.609375C107.682 0.609375 108.838 0.853516 109.912 1.3418C111.019 1.79753 111.979 2.43229 112.793 3.24609C113.607 4.02734 114.242 4.97135 114.697 6.07812C115.186 7.15234 115.43 8.29167 115.43 9.49609ZM113.135 76H99.707V23.7051H113.135V76ZM136.768 95.9219H123.34V23.7051H126.562L131.885 30.0039C133.089 28.8646 134.408 27.7904 135.84 26.7812C137.272 25.7721 138.753 24.9095 140.283 24.1934C141.846 23.4447 143.457 22.8587 145.117 22.4355C146.777 22.0124 148.454 21.8008 150.146 21.8008C153.825 21.8008 157.275 22.4681 160.498 23.8027C163.753 25.1048 166.585 26.9603 168.994 29.3691C171.436 31.778 173.356 34.6914 174.756 38.1094C176.156 41.4948 176.855 45.2546 176.855 49.3887C176.855 53.6855 176.156 57.5592 174.756 61.0098C173.356 64.4277 171.436 67.3411 168.994 69.75C166.585 72.1263 163.753 73.9492 160.498 75.2188C157.275 76.4883 153.825 77.123 150.146 77.123C148.975 77.123 147.803 76.9928 146.631 76.7324C145.492 76.472 144.352 76.1302 143.213 75.707C142.106 75.2513 140.999 74.7467 139.893 74.1934C138.818 73.64 137.777 73.0703 136.768 72.4844V95.9219ZM163.477 49.3887C163.477 47.1751 163.118 45.1895 162.402 43.4316C161.719 41.6738 160.775 40.1927 159.57 38.9883C158.366 37.7513 156.95 36.8073 155.322 36.1562C153.695 35.5052 151.969 35.1797 150.146 35.1797C148.324 35.1797 146.598 35.5052 144.971 36.1562C143.376 36.8073 141.976 37.7513 140.771 38.9883C139.567 40.1927 138.607 41.6738 137.891 43.4316C137.207 45.1895 136.865 47.1751 136.865 49.3887C136.865 51.5046 137.207 53.4414 137.891 55.1992C138.607 56.957 139.567 58.4544 140.771 59.6914C141.976 60.9284 143.376 61.8887 144.971 62.5723C146.598 63.2559 148.324 63.5977 150.146 63.5977C151.969 63.5977 153.695 63.2559 155.322 62.5723C156.95 61.8887 158.366 60.9284 159.57 59.6914C160.775 58.4544 161.719 56.957 162.402 55.1992C163.118 53.4414 163.477 51.5046 163.477 49.3887ZM205.078 63.207C205.599 63.3698 206.12 63.4837 206.641 63.5488C207.161 63.5814 207.682 63.5977 208.203 63.5977C209.505 63.5977 210.758 63.4186 211.963 63.0605C213.167 62.7025 214.29 62.1979 215.332 61.5469C216.406 60.8633 217.35 60.0495 218.164 59.1055C219.01 58.1289 219.694 57.0547 220.215 55.8828L229.98 65.6973C228.743 67.4551 227.311 69.0339 225.684 70.4336C224.089 71.8333 222.347 73.0215 220.459 73.998C218.604 74.9746 216.634 75.707 214.551 76.1953C212.5 76.7161 210.384 76.9766 208.203 76.9766C204.525 76.9766 201.058 76.293 197.803 74.9258C194.58 73.5586 191.748 71.6543 189.307 69.2129C186.898 66.7715 184.993 63.8743 183.594 60.5215C182.194 57.1361 181.494 53.4251 181.494 49.3887C181.494 45.2546 182.194 41.4785 183.594 38.0605C184.993 34.6426 186.898 31.7292 189.307 29.3203C191.748 26.9115 194.58 25.0397 197.803 23.7051C201.058 22.3704 204.525 21.7031 208.203 21.7031C210.384 21.7031 212.516 21.9635 214.6 22.4844C216.683 23.0052 218.652 23.7539 220.508 24.7305C222.396 25.707 224.154 26.9115 225.781 28.3438C227.409 29.7435 228.841 31.3223 230.078 33.0801L205.078 63.207ZM211.914 35.7168C211.296 35.4889 210.677 35.3424 210.059 35.2773C209.473 35.2122 208.854 35.1797 208.203 35.1797C206.38 35.1797 204.655 35.5215 203.027 36.2051C201.432 36.8561 200.033 37.8001 198.828 39.0371C197.656 40.2741 196.729 41.7715 196.045 43.5293C195.361 45.2546 195.02 47.2077 195.02 49.3887C195.02 49.877 195.036 50.4303 195.068 51.0488C195.133 51.6673 195.215 52.3021 195.312 52.9531C195.443 53.5716 195.589 54.1738 195.752 54.7598C195.915 55.3457 196.126 55.8665 196.387 56.3223L211.914 35.7168ZM250.146 76H236.816V23.7051H240.039L244.434 28.7832C246.582 26.8301 249.007 25.3327 251.709 24.291C254.443 23.2168 257.292 22.6797 260.254 22.6797C263.444 22.6797 266.455 23.2982 269.287 24.5352C272.119 25.7396 274.593 27.416 276.709 29.5645C278.825 31.6803 280.485 34.1706 281.689 37.0352C282.926 39.8672 283.545 42.8945 283.545 46.1172V76H270.215V46.1172C270.215 44.75 269.954 43.4642 269.434 42.2598C268.913 41.0228 268.197 39.9486 267.285 39.0371C266.374 38.1257 265.316 37.4095 264.111 36.8887C262.907 36.3678 261.621 36.1074 260.254 36.1074C258.854 36.1074 257.536 36.3678 256.299 36.8887C255.062 37.4095 253.988 38.1257 253.076 39.0371C252.165 39.9486 251.449 41.0228 250.928 42.2598C250.407 43.4642 250.146 44.75 250.146 46.1172V76ZM343.604 76H340.381L335.205 68.8223C333.936 69.9616 332.585 71.0358 331.152 72.0449C329.753 73.0215 328.271 73.8841 326.709 74.6328C325.146 75.349 323.535 75.9186 321.875 76.3418C320.247 76.765 318.587 76.9766 316.895 76.9766C313.216 76.9766 309.749 76.293 306.494 74.9258C303.271 73.526 300.439 71.6055 297.998 69.1641C295.589 66.6901 293.685 63.7767 292.285 60.4238C290.885 57.0384 290.186 53.36 290.186 49.3887C290.186 45.4499 290.885 41.7878 292.285 38.4023C293.685 35.0169 295.589 32.0872 297.998 29.6133C300.439 27.1393 303.271 25.2025 306.494 23.8027C309.749 22.403 313.216 21.7031 316.895 21.7031C318.066 21.7031 319.271 21.8008 320.508 21.9961C321.777 22.1914 322.998 22.5169 324.17 22.9727C325.374 23.3958 326.497 23.9655 327.539 24.6816C328.581 25.3978 329.46 26.2767 330.176 27.3184V2.9043H343.604V76ZM330.176 49.3887C330.176 47.5658 329.818 45.8079 329.102 44.1152C328.418 42.39 327.474 40.8763 326.27 39.5742C325.065 38.2396 323.649 37.1816 322.021 36.4004C320.426 35.5866 318.717 35.1797 316.895 35.1797C315.072 35.1797 313.346 35.5052 311.719 36.1562C310.124 36.8073 308.724 37.7513 307.52 38.9883C306.348 40.1927 305.42 41.6738 304.736 43.4316C304.053 45.1895 303.711 47.1751 303.711 49.3887C303.711 51.3092 304.053 53.1322 304.736 54.8574C305.42 56.5827 306.348 58.0964 307.52 59.3984C308.724 60.7005 310.124 61.7259 311.719 62.4746C313.346 63.2233 315.072 63.5977 316.895 63.5977C318.717 63.5977 320.426 63.207 322.021 62.4258C323.649 61.612 325.065 60.554 326.27 59.252C327.474 57.9173 328.418 56.4036 329.102 54.7109C329.818 52.9857 330.176 51.2116 330.176 49.3887Z" fill="black"/>
</svg>
