<svg xmlns="http://www.w3.org/2000/svg" width="106" height="89" viewBox="0 0 106 89" fill="none">
<path d="M55.1152 21.709L55.2052 21.735L55.2078 21.732C55.8488 21.8674 56.5006 21.5039 56.6916 20.8811C58.4918 15.0389 64.1652 10.9532 70.492 10.9532C71.1877 10.9532 71.7609 10.4069 71.7609 9.7225C71.7609 9.0381 71.1877 8.49185 70.492 8.49185C62.8034 8.49185 56.3374 13.4363 54.2605 20.1769C54.0579 20.8332 54.4466 21.5165 55.1152 21.709Z" fill="black" stroke="#F9FFF9" stroke-width="0.3"/>
<path d="M86.1553 62.6745H79.442C78.8243 62.6745 78.3231 62.1905 78.3231 61.5938C78.3231 60.9972 78.8242 60.5132 79.442 60.5132H86.1553C95.4092 60.5132 102.939 53.2411 102.939 44.3035C102.939 35.3659 95.4092 28.0939 86.1553 28.0939H85.9939C85.6694 28.0939 85.3609 27.958 85.1483 27.721C84.9357 27.4841 84.8398 27.1699 84.8862 26.8596C84.9861 26.1865 85.0364 25.5104 85.0364 24.852C85.0364 17.1061 78.5108 10.8035 70.4908 10.8035C67.3707 10.8035 64.3952 11.7452 61.8856 13.5275C61.3341 13.9188 60.5509 13.7451 60.232 13.1593C53.1247 0.0881659 34.5612 -1.66715 24.9369 9.70357C20.8826 14.4939 19.2896 20.7253 20.5661 26.7987C20.7068 27.4695 20.1753 28.0947 19.4696 28.0947H19.0212C9.76728 28.0947 2.23789 35.3667 2.23789 44.3043C2.23789 53.242 9.76728 60.514 19.0212 60.514H25.7345C26.3523 60.514 26.8534 60.998 26.8534 61.5946C26.8534 62.1913 26.3523 62.6753 25.7345 62.6753H19.0212C8.53315 62.6753 0 54.4338 0 44.3043C0 34.4588 8.06073 26.3972 18.1429 25.9526C17.1958 19.6516 19.0068 13.2959 23.2042 8.3358C33.5084 -3.83917 53.2555 -2.47452 61.6031 11.1015C64.2661 9.48898 67.3134 8.64307 70.4904 8.64307C80.2071 8.64307 87.9068 16.6306 87.233 25.9627C97.2223 26.5038 105.176 34.5229 105.176 44.3035C105.176 54.4338 96.6429 62.6745 86.1548 62.6745L86.1553 62.6745Z" fill="black"/>
<path d="M24.3158 60.9837C24.3158 75.9684 36.9365 88.1501 52.4384 88.1501C67.9405 88.1501 80.561 75.9682 80.561 60.9837C80.561 45.999 67.9405 33.8173 52.4384 33.8173C36.9363 33.8173 24.3158 45.9992 24.3158 60.9837ZM26.8541 60.9837C26.8541 47.3668 38.3264 36.2791 52.4384 36.2791C66.5502 36.2791 78.0227 47.3666 78.0227 60.9837C78.0227 74.6006 66.5502 85.6883 52.4384 85.6883C38.3266 85.6883 26.8541 74.6008 26.8541 60.9837Z" fill="black" stroke="#F9FFF9" stroke-width="0.3"/>
<path d="M51.9809 71.8594C51.9809 72.384 52.4199 72.8005 52.95 72.8005C53.4801 72.8005 53.9192 72.3846 53.9192 71.8594V51.2892C53.9192 50.7646 53.4802 50.348 52.95 50.348C52.4198 50.348 51.9809 50.7647 51.9809 51.2892V71.8594Z" fill="black" stroke="#483EA8" stroke-width="0.3"/>
<path d="M58.8194 58.2875C59.0087 58.4704 59.2568 58.5613 59.5028 58.5613L52.2661 50.6237L45.713 56.9528C45.3319 57.3209 45.3319 57.9194 45.713 58.2875C46.0911 58.6527 46.7023 58.6528 47.08 58.2874L52.9497 52.6184L58.8194 58.2875ZM53.6331 50.6236C53.255 50.2585 52.6438 50.2583 52.2662 50.6236L59.5029 58.5613C59.7485 58.5613 59.9968 58.4711 60.1863 58.2875C60.5674 57.9194 60.5674 57.3209 60.1863 56.9528L53.6331 50.6236Z" fill="black" stroke="#483EA8" stroke-width="0.3"/>
</svg>